<svg width="24" height="24" viewBox="0 0 24 24" fill="none" xmlns="http://www.w3.org/2000/svg">
<path d="M6 5H5C3.89543 5 3 5.89543 3 7V10M6 5V3M6 5H18M6 5V6M18 5H19C20.1046 5 21 5.89543 21 7V10M18 5V3M18 5V6M21 10V19C21 20.1046 20.1046 21 19 21H5C3.89543 21 3 20.1046 3 19L3 10M21 10H3M16.5 14V15C16.5 15.5523 16.0523 16 15.5 16H15C14.4477 16 14 15.5523 14 15V14C14 13.4477 14.4477 13 15 13H15.5C16.0523 13 16.5 13.4477 16.5 14ZM10 14V15C10 15.5523 9.55228 16 9 16H8.5C7.94772 16 7.5 15.5523 7.5 15V14C7.5 13.4477 7.94772 13 8.5 13H9C9.55228 13 10 13.4477 10 14Z" stroke="#3D1B50" stroke-width="1.5" stroke-linecap="round"/>
</svg>
