<svg width="24" height="24" viewBox="0 0 24 24" fill="none" xmlns="http://www.w3.org/2000/svg">
<path d="M2 9C2 7.89543 2.89543 7 4 7H5.74431C6.51205 7 7.21203 6.56052 7.54563 5.86906L7.90174 5.13094C8.23534 4.43948 8.93532 4 9.70305 4H14.2969C15.0647 4 15.7647 4.43948 16.0983 5.13094L16.4544 5.86906C16.788 6.56052 17.4879 7 18.2557 7H20C21.1046 7 22 7.89543 22 9V18C22 19.1046 21.1046 20 20 20H4C2.89543 20 2 19.1046 2 18V9Z" stroke="#3D1B50" stroke-width="1.5"/>
<circle cx="12" cy="12.5" r="4" stroke="#3D1B50" stroke-width="1.5"/>
</svg>
