<svg width="26" height="24" viewBox="0 0 26 24" fill="none" xmlns="http://www.w3.org/2000/svg">
<path fill-rule="evenodd" clip-rule="evenodd" d="M16.463 7.5H4.629C2.953 7.5 1.5 8.849 1.5 10.512V15.476C1.5 17.139 2.953 18.5 4.629 18.5H5.5V21.448C5.5 22.097 6.152 22.44 6.631 21.999L10.311 18.5H16.463C18.138 18.5 19.5 17.139 19.5 15.476V10.512C19.5 8.849 18.138 7.5 16.463 7.5Z" stroke="#3D1B50" stroke-width="1.5" stroke-linecap="round" stroke-linejoin="round"/>
<path d="M21.6995 12.503C23.2335 12.33 24.4995 11.029 24.4995 9.449V5.575C24.4995 3.877 22.9755 2.5 21.2775 2.5H11.4245C9.82551 2.5 8.66851 3.723 8.52051 5.282" stroke="#3D1B50" stroke-width="1.5" stroke-linecap="round" stroke-linejoin="round"/>
<path d="M5.5166 14.5H15.4306" stroke="#3D1B50" stroke-width="1.5" stroke-linecap="round" stroke-linejoin="round"/>
<path d="M5.5166 11.5H15.4306" stroke="#3D1B50" stroke-width="1.5" stroke-linecap="round" stroke-linejoin="round"/>
</svg>
