<svg width="24" height="24" viewBox="0 0 24 24" fill="none" xmlns="http://www.w3.org/2000/svg">
<path d="M17.5201 4.41298L16.7783 4.52387L17.5201 4.41298ZM18.1938 7.47246L18.5272 6.80061L18.1938 7.47246ZM17.9215 7.09849L17.1798 7.20938L17.9215 7.09849ZM20.8541 9.36247L20.1896 9.01484L20.8541 9.36247ZM20.6333 8.68281L20.9666 8.01096L20.6333 8.68281ZM19.5957 12.2318L20.2602 11.8841L19.5957 12.2318ZM19.5957 11.7683L20.2602 12.1159L19.5957 11.7683ZM20.8541 14.6376L20.1896 14.9852L20.8541 14.6376ZM17.9215 16.9015L17.1798 16.7907L17.9215 16.9015ZM18.1938 16.5276L17.8605 15.8557L18.1938 16.5276ZM16.9431 20.0063L16.8194 20.746L16.9431 20.0063ZM17.5201 19.5871L18.2618 19.6979L17.5201 19.5871ZM13.8133 19.6984L14.3475 20.2248L13.8133 19.6984ZM14.2519 19.5562L14.1282 20.2959L14.2519 19.5562ZM11.1893 21.6386L10.6551 22.165L11.1893 21.6386ZM11.9016 21.6386L11.3674 21.1122L11.9016 21.6386ZM8.83899 19.5562L8.96269 20.2959L8.83899 19.5562ZM9.27761 19.6984L9.81184 19.172L9.27761 19.6984ZM5.57081 19.5871L4.82905 19.6979L5.57081 19.5871ZM6.14778 20.0063L6.27149 20.746L6.14778 20.0063ZM5.16933 16.9015L4.42758 17.0124L5.16933 16.9015ZM2.23676 14.6376L1.57219 14.2899L2.23676 14.6376ZM2.45758 15.3172L2.79091 14.6454L2.45758 15.3172ZM3.49523 11.7683L2.83066 12.1159L3.49523 11.7683ZM3.49523 12.2318L2.83066 11.8841L3.49523 12.2318ZM2.45758 8.68281L2.12424 8.01096L2.45758 8.68281ZM2.23676 9.36247L1.57219 9.71011L2.23676 9.36247ZM4.89706 7.47246L5.23039 8.14432L4.89706 7.47246ZM5.57081 4.41298L6.31257 4.52387L5.57081 4.41298ZM12.0202 16.8563L11.9486 16.1097L12.0202 16.8563ZM9.27761 4.30159L9.81184 4.82799L9.27761 4.30159ZM8.83899 4.44381L8.71528 5.18354L8.83899 4.44381ZM13.8133 4.30159L14.3475 3.77519L13.8133 4.30159ZM14.2519 4.44381L14.1282 3.70408L14.2519 4.44381ZM11.1893 2.36147L10.6551 1.83507L11.1893 2.36147ZM11.3674 2.88787L13.279 4.82799L14.3475 3.77519L12.4358 1.83507L11.3674 2.88787ZM9.81184 4.82799L11.7235 2.88787L10.6551 1.83507L8.74338 3.77519L9.81184 4.82799ZM6.02408 4.73348L8.71528 5.18354L8.96269 3.70408L6.27149 3.25403L6.02408 4.73348ZM5.91109 7.20938L6.31257 4.52387L4.82905 4.30209L4.42758 6.9876L5.91109 7.20938ZM2.79091 9.35466L5.23039 8.14432L4.56372 6.80061L2.12424 8.01096L2.79091 9.35466ZM4.15979 11.4206L2.90132 9.01484L1.57219 9.71011L2.83066 12.1159L4.15979 11.4206ZM2.90132 14.9852L4.15979 12.5794L2.83066 11.8841L1.57219 14.2899L2.90132 14.9852ZM5.2304 15.8557L2.79091 14.6454L2.12424 15.9891L4.56372 17.1994L5.2304 15.8557ZM6.31257 19.4762L5.91109 16.7907L4.42758 17.0124L4.82905 19.6979L6.31257 19.4762ZM8.71528 18.8165L6.02408 19.2665L6.27149 20.746L8.96269 20.2959L8.71528 18.8165ZM11.7235 21.1122L9.81184 19.172L8.74338 20.2248L10.6551 22.165L11.7235 21.1122ZM13.279 19.172L11.3674 21.1122L12.4358 22.165L14.3475 20.2248L13.279 19.172ZM17.0668 19.2665L14.3756 18.8165L14.1282 20.2959L16.8194 20.746L17.0668 19.2665ZM17.1798 16.7907L16.7783 19.4762L18.2618 19.6979L18.6633 17.0124L17.1798 16.7907ZM20.3 14.6454L17.8605 15.8557L18.5272 17.1994L20.9666 15.9891L20.3 14.6454ZM18.9311 12.5794L20.1896 14.9852L21.5187 14.2899L20.2602 11.8841L18.9311 12.5794ZM20.1896 9.01484L18.9311 11.4206L20.2602 12.1159L21.5187 9.71011L20.1896 9.01484ZM17.8605 8.14432L20.3 9.35466L20.9666 8.01096L18.5272 6.80061L17.8605 8.14432ZM16.7783 4.52387L17.1798 7.20938L18.6633 6.9876L18.2618 4.30209L16.7783 4.52387ZM14.3756 5.18354L17.0668 4.73348L16.8194 3.25403L14.1282 3.70408L14.3756 5.18354ZM11.7017 7.46255C10.3057 8.48536 9.39633 10.1367 9.39633 12.0004H10.8963C10.8963 10.6363 11.5601 9.4258 12.5882 8.67254L11.7017 7.46255ZM11.5454 7.87185C11.6816 7.87185 11.8162 7.87837 11.9486 7.89107L12.0918 6.39792C11.9118 6.38066 11.7295 6.37185 11.5454 6.37185V7.87185ZM7.39898 12.0004C7.39898 9.72284 9.2528 7.87185 11.5454 7.87185V6.37185C8.42956 6.37185 5.89898 8.88924 5.89898 12.0004H7.39898ZM11.5454 16.1289C9.2528 16.1289 7.39898 14.2779 7.39898 12.0004H5.89898C5.89898 15.1115 8.42956 17.6289 11.5454 17.6289V16.1289ZM11.9486 16.1097C11.8162 16.1224 11.6816 16.1289 11.5454 16.1289V17.6289C11.7295 17.6289 11.9118 17.6201 12.0918 17.6028L11.9486 16.1097ZM9.39633 12.0004C9.39633 13.8641 10.3057 15.5154 11.7017 16.5382L12.5882 15.3282C11.5601 14.575 10.8963 13.3645 10.8963 12.0004H9.39633ZM12.5882 8.67254C12.9969 8.37312 13.1864 7.8886 13.1388 7.44137C13.1144 7.21154 13.0239 6.9645 12.8363 6.76085C12.6419 6.54981 12.3792 6.42547 12.0918 6.39792L11.9486 7.89107C11.8899 7.88544 11.8034 7.85351 11.7332 7.77723C11.6697 7.70834 11.6513 7.63842 11.6472 7.59993C11.6404 7.53538 11.6636 7.49046 11.7017 7.46255L12.5882 8.67254ZM18.2618 4.30209C18.1585 3.61095 17.5086 3.13876 16.8194 3.25403L17.0668 4.73348C16.929 4.75654 16.799 4.6621 16.7783 4.52387L18.2618 4.30209ZM18.5272 6.80061C18.6004 6.83694 18.6512 6.90676 18.6633 6.9876L17.1798 7.20938C17.2402 7.61356 17.4944 7.96268 17.8605 8.14432L18.5272 6.80061ZM21.5187 9.71011C21.8435 9.08912 21.5944 8.32244 20.9666 8.01096L20.3 9.35466C20.1744 9.29237 20.1246 9.13903 20.1896 9.01484L21.5187 9.71011ZM20.2602 11.8841C20.2982 11.9567 20.2982 12.0433 20.2602 12.1159L18.9311 11.4206C18.7412 11.7836 18.7412 12.2165 18.9311 12.5794L20.2602 11.8841ZM20.9666 15.9891C21.5944 15.6776 21.8435 14.9109 21.5187 14.2899L20.1896 14.9852C20.1246 14.861 20.1744 14.7077 20.3 14.6454L20.9666 15.9891ZM18.6633 17.0124C18.6512 17.0933 18.6004 17.1631 18.5272 17.1994L17.8605 15.8557C17.4944 16.0374 17.2402 16.3865 17.1798 16.7907L18.6633 17.0124ZM16.8194 20.746C17.5086 20.8613 18.1585 20.3891 18.2618 19.6979L16.7783 19.4762C16.799 19.3379 16.929 19.2435 17.0668 19.2665L16.8194 20.746ZM14.3475 20.2248C14.2903 20.2828 14.2085 20.3094 14.1282 20.2959L14.3756 18.8165C13.974 18.7493 13.5648 18.882 13.279 19.172L14.3475 20.2248ZM10.6551 22.165C11.1447 22.6619 11.9462 22.6618 12.4358 22.165L11.3674 21.1122C11.4653 21.0128 11.6256 21.0128 11.7235 21.1122L10.6551 22.165ZM8.96269 20.2959C8.88237 20.3094 8.80054 20.2828 8.74338 20.2248L9.81184 19.172C9.52605 18.882 9.11689 18.7493 8.71528 18.8165L8.96269 20.2959ZM4.82905 19.6979C4.93237 20.3891 5.58225 20.8613 6.27149 20.746L6.02408 19.2665C6.16193 19.2435 6.2919 19.3379 6.31257 19.4762L4.82905 19.6979ZM4.56372 17.1994C4.4905 17.1631 4.43966 17.0933 4.42758 17.0124L5.91109 16.7907C5.85067 16.3865 5.59648 16.0374 5.2304 15.8557L4.56372 17.1994ZM1.57219 14.2899C1.24735 14.9109 1.49644 15.6776 2.12424 15.9891L2.79091 14.6454C2.91647 14.7077 2.96629 14.861 2.90132 14.9852L1.57219 14.2899ZM2.83066 12.1159C2.79269 12.0433 2.79269 11.9567 2.83066 11.8841L4.15979 12.5794C4.34965 12.2165 4.34965 11.7836 4.15979 11.4206L2.83066 12.1159ZM2.12424 8.01096C1.49644 8.32244 1.24735 9.08912 1.57219 9.71011L2.90132 9.01484C2.96629 9.13903 2.91647 9.29237 2.79091 9.35466L2.12424 8.01096ZM4.42758 6.9876C4.43966 6.90676 4.4905 6.83694 4.56372 6.80061L5.23039 8.14432C5.59648 7.96268 5.85067 7.61356 5.91109 7.20938L4.42758 6.9876ZM6.27149 3.25403C5.58225 3.13876 4.93237 3.61095 4.82905 4.30209L6.31257 4.52387C6.2919 4.6621 6.16193 4.75654 6.02408 4.73348L6.27149 3.25403ZM12.0918 17.6028C12.3792 17.5753 12.6419 17.4509 12.8363 17.2399C13.0239 17.0363 13.1144 16.7892 13.1388 16.5594C13.1864 16.1122 12.9969 15.6276 12.5882 15.3282L11.7017 16.5382C11.6636 16.5103 11.6404 16.4654 11.6472 16.4008C11.6513 16.3623 11.6697 16.2924 11.7332 16.2235C11.8034 16.1472 11.8899 16.1153 11.9486 16.1097L12.0918 17.6028ZM8.74338 3.77519C8.80054 3.71719 8.88237 3.69065 8.96269 3.70408L8.71528 5.18354C9.11689 5.2507 9.52605 5.11804 9.81184 4.82799L8.74338 3.77519ZM13.279 4.82799C13.5648 5.11804 13.974 5.2507 14.3756 5.18354L14.1282 3.70408C14.2085 3.69065 14.2903 3.71719 14.3475 3.77519L13.279 4.82799ZM12.4358 1.83507C11.9462 1.33818 11.1447 1.33818 10.6551 1.83507L11.7235 2.88787C11.6256 2.98725 11.4653 2.98725 11.3674 2.88787L12.4358 1.83507Z" fill="#3D1B50"/>
</svg>
