<svg width="24" height="24" viewBox="0 0 24 24" fill="none" xmlns="http://www.w3.org/2000/svg">
<path d="M5.5 3H4.5C3.94772 3 3.5 3.44772 3.5 4V8C3.5 10.7614 5.73858 13 8.5 13V13M11.5 3H12.5C13.0523 3 13.5 3.44772 13.5 4V8C13.5 10.7614 11.2614 13 8.5 13V13M8.5 13V16C8.5 18.7614 10.7386 21 13.5 21V21C16.2614 21 18.5 18.7614 18.5 16V13.5M18.5 13.5L19.75 12.25C20.4404 11.5596 20.4404 10.4404 19.75 9.75V9.75C19.0596 9.05964 17.9404 9.05964 17.25 9.75V9.75C16.5596 10.4404 16.5596 11.5596 17.25 12.25L18.5 13.5Z" stroke="#3D1B50" stroke-width="1.5" stroke-linecap="round"/>
</svg>
