<svg width="24" height="24" viewBox="0 0 24 24" fill="none" xmlns="http://www.w3.org/2000/svg">
<path d="M14.2854 16V10.5714C14.2854 9.15127 13.1342 8 11.714 8V8C10.2938 8 9.14258 9.15127 9.14258 10.5714V16.3571C9.14258 19.1975 11.4451 21.5 14.2854 21.5V21.5" stroke="#3D1B50" stroke-width="1.5" stroke-linecap="round"/>
<path d="M11.7141 10.5V15.8571C11.7141 17.2773 12.8654 18.4286 14.2856 18.4286V18.4286C15.7057 18.4286 16.857 17.2773 16.857 15.8571V10.3929C16.857 7.55254 14.5545 5.25 11.7141 5.25V5.25C8.87383 5.25 6.57129 7.55253 6.57129 10.3929V21" stroke="#3D1B50" stroke-width="1.5" stroke-linecap="round"/>
<path d="M19.4286 17.9286V10.2143C19.4286 5.95381 15.9748 2.5 11.7143 2.5V2.5C7.4538 2.5 4 5.9538 4 10.2143V17.9286" stroke="#3D1B50" stroke-width="1.5" stroke-linecap="round"/>
</svg>
