<svg width="24" height="24" viewBox="0 0 24 24" fill="none" xmlns="http://www.w3.org/2000/svg">
<path d="M21 13V12H18V17H19V15H20.5V14H19V13H21Z" fill="#3D1B50"/>
<path d="M15.5 17H13.5V12H15.5C15.8977 12.0004 16.279 12.1586 16.5602 12.4398C16.8414 12.721 16.9996 13.1023 17 13.5V15.5C16.9996 15.8977 16.8414 16.279 16.5602 16.5602C16.279 16.8414 15.8977 16.9996 15.5 17ZM14.5 16H15.5C15.6326 15.9999 15.7597 15.9471 15.8534 15.8534C15.9471 15.7597 15.9999 15.6326 16 15.5V13.5C15.9999 13.3674 15.9471 13.2403 15.8534 13.1466C15.7597 13.0529 15.6326 13.0001 15.5 13H14.5V16Z" fill="#3D1B50"/>
<path d="M11.5 12H9V17H10V15.5H11.5C11.7651 15.4996 12.0192 15.3941 12.2067 15.2067C12.3941 15.0192 12.4996 14.7651 12.5 14.5V13C12.4997 12.7349 12.3943 12.4807 12.2068 12.2932C12.0193 12.1057 11.7651 12.0003 11.5 12V12ZM10 14.5V13H11.5L11.5005 14.5H10Z" fill="#3D1B50"/>
<path d="M16.5 20.5H6.5C5.39543 20.5 4.5 19.6046 4.5 18.5V5.5C4.5 4.39543 5.39543 3.5 6.5 3.5H12M12 3.5L16.5 8.5H13C12.4477 8.5 12 8.05228 12 7.5V3.5Z" stroke="#3D1B50" stroke-width="1.5" stroke-linecap="round" stroke-linejoin="round"/>
</svg>
