<svg width="24" height="24" viewBox="0 0 24 24" fill="none" xmlns="http://www.w3.org/2000/svg">
<path d="M2.66325 18.8467L3.63347 20.5226C3.83508 20.8754 4.12489 21.1526 4.4651 21.3542L7.9302 15.3564H1C1 15.7471 1.1008 16.1377 1.30241 16.4905L2.66325 18.8467Z" fill="#0066DA"/>
<path d="M12.0001 8.30002L8.53501 2.30225C8.1948 2.50385 7.905 2.78106 7.70339 3.13387L1.30241 14.2222C1.10451 14.5674 1.00026 14.9583 1 15.3562H7.9302L12.0001 8.30002Z" fill="#00AC47"/>
<path d="M19.5349 21.3542C19.8752 21.1526 20.165 20.8754 20.3666 20.5226L20.7698 19.8296L22.6976 16.4905C22.8992 16.1377 23 15.7471 23 15.3564H16.0693L17.5441 18.2545L19.5349 21.3542Z" fill="#EA4335"/>
<path d="M12.0003 8.30018L15.4654 2.30241C15.1251 2.1008 14.7345 2 14.3313 2H9.66919C9.26598 2 8.87537 2.1134 8.53516 2.30241L12.0003 8.30018Z" fill="#00832D"/>
<path d="M16.0698 15.3564H7.92994L4.46484 21.3542C4.80505 21.5558 5.19566 21.6566 5.59888 21.6566H18.4008C18.8041 21.6566 19.1947 21.5432 19.5349 21.3542L16.0698 15.3564Z" fill="#2684FC"/>
<path d="M19.4972 8.67803L16.2967 3.13387C16.0951 2.78106 15.8053 2.50385 15.4651 2.30225L12 8.30002L16.0699 15.3562H22.9875C22.9875 14.9656 22.8867 14.575 22.6851 14.2222L19.4972 8.67803Z" fill="#FFBA00"/>
</svg>
