<svg width="24" height="24" viewBox="0 0 24 24" fill="none" xmlns="http://www.w3.org/2000/svg">
<path d="M20.4879 15C20.8195 14.0617 21 13.0519 21 12C21 10.9481 20.8195 9.93834 20.4879 9M20.4879 15C20.4281 15.169 20.3635 15.3358 20.2941 15.5C20.233 15.6445 20.1683 15.7871 20.1 15.9277C18.6414 18.9303 15.5624 21 12 21C8.43762 21 5.35865 18.9303 3.9 15.9277C3.83171 15.7871 3.76698 15.6445 3.70591 15.5C3.63652 15.3358 3.57186 15.169 3.51212 15M20.4879 15H3.51212M3.51212 15C3.18046 14.0617 3 13.0519 3 12C3 10.9481 3.18046 9.93834 3.51212 9M3.51212 9C3.57186 8.83096 3.63652 8.66423 3.70591 8.5C3.76698 8.35546 3.83171 8.21285 3.9 8.07229C5.35865 5.06973 8.43762 3 12 3C15.5624 3 18.6414 5.06973 20.1 8.07229C20.1683 8.21285 20.233 8.35546 20.2941 8.5C20.3635 8.66423 20.4281 8.83096 20.4879 9M3.51212 9H20.4879" stroke="#3D1B50" stroke-width="1.5"/>
<path d="M11.5 21C11.5 21 8 17.4808 8 12C8 6.51923 11.5 3 11.5 3" stroke="#3D1B50" stroke-width="1.5" stroke-linecap="round"/>
<path d="M12.5 21C12.5 21 16 17.4808 16 12C16 6.51923 12.5 3 12.5 3" stroke="#3D1B50" stroke-width="1.5" stroke-linecap="round"/>
</svg>
