<svg width="24" height="24" viewBox="0 0 24 24" fill="none" xmlns="http://www.w3.org/2000/svg">
<g clip-path="url(#clip0_133_16237)">
<path d="M6.42824 11.9901C6.42824 11.2801 6.54041 10.6001 6.74524 9.96512L3.11194 7.12012C2.40478 8.59012 2 10.2451 2 12.0001C2 13.7551 2.39991 15.4101 3.11194 16.8801L6.74524 14.0201C6.54529 13.3851 6.42824 12.7001 6.42824 11.9901Z" fill="#FFB800"/>
<path d="M12.7589 5.5C14.2902 5.5 15.6362 6.06 16.675 6.985L19.806 3.775C18.0552 2.05 15.6557 1 12.7296 1C8.51593 1 4.87288 3.49 3.11719 7.115L6.75049 9.96C7.57957 7.375 9.95462 5.5 12.7589 5.5Z" fill="#EA4335"/>
<path d="M12.7588 18.4799C9.95462 18.4799 7.58444 16.6099 6.75049 14.0249L3.11719 16.8849C4.868 20.5049 8.51593 22.9999 12.7296 22.9999C15.5387 22.9999 17.982 21.9849 19.7865 20.2349L16.3483 17.5399C15.3582 18.1799 14.1341 18.4799 12.7588 18.4799Z" fill="#34A853"/>
<path d="M22.8491 10H18.5477H12.7588V14.25H18.577C18.1966 15.78 17.4114 16.855 16.3482 17.54L19.7864 20.235C21.3324 18.73 22.4102 16.685 22.815 14.25C22.9369 13.53 23.0003 12.78 23.0003 12C23.0003 11.315 22.9467 10.65 22.8491 10Z" fill="#4285F4"/>
</g>
<defs>
<clipPath id="clip0_133_16237">
<rect width="21" height="22" fill="white" transform="translate(2 1)"/>
</clipPath>
</defs>
</svg>
