<svg width="24" height="24" viewBox="0 0 24 24" fill="none" xmlns="http://www.w3.org/2000/svg">
<path d="M12 7.62554C11.6625 6.85418 11.1051 6.19568 10.3952 5.72981C9.68531 5.26393 8.85344 5.01066 8.00034 5.00066C7.47241 4.99105 6.94793 5.08632 6.45825 5.28078C5.96857 5.47524 5.52375 5.76491 5.15039 6.13245C4.77702 6.5 4.48277 6.93788 4.28523 7.41993C4.08768 7.90197 3.9909 8.41827 4.00067 8.93798C4.00067 12.0003 7.37817 14.4502 12 19C16.6218 14.4502 19.9993 12.0003 19.9993 8.93798C20.0091 8.41827 19.9123 7.90197 19.7148 7.41993C19.5172 6.93788 19.223 6.5 18.8496 6.13245C18.4762 5.76491 18.0314 5.47524 17.5418 5.28078C17.0521 5.08632 16.5276 4.99105 15.9997 5.00066C15.1466 5.01066 14.3147 5.26393 13.6048 5.72981C12.8949 6.19568 12.3375 6.85418 12 7.62554Z" stroke="#3D1B50" stroke-width="1.5"/>
</svg>
