<svg width="24" height="24" viewBox="0 0 24 24" fill="none" xmlns="http://www.w3.org/2000/svg">
<path d="M8 7.53904C12.0636 5.05711 17.0902 6.54411 20 12C19.075 13.7344 17.9361 15.0677 16.6822 16M8 7.53904L4.3 4M8 7.53904L10.8643 10.3304M16.6822 16L19.8 19M16.6822 16L13.7287 13.1218M14.365 17.2306C10.6592 18.4867 6.52967 16.7432 4 12C4.63374 10.8118 5.36789 9.81175 6.17063 9M13.7287 13.1218C13.9858 12.5812 14.3 11.3 13.5 10.5C12.7 9.7 11.4096 10.0536 10.8643 10.3304M13.7287 13.1218L10.8643 10.3304" stroke="#3D1B50" stroke-width="1.5" stroke-linecap="round"/>
</svg>
