<svg width="24" height="24" viewBox="0 0 24 24" fill="none" xmlns="http://www.w3.org/2000/svg">
<path d="M19 20C20.1046 20 21 19.1046 21 18V6C21 4.89543 20.1046 4 19 4H5C3.89543 4 3 4.89543 3 6V18C3 19.1046 3.89543 20 5 20H19Z" stroke="#3D1B50" stroke-width="1.5"/>
<path d="M10 9C10 10.1046 9.10457 11 8 11C6.89543 11 6 10.1046 6 9C6 7.89543 6.89543 7 8 7C9.10457 7 10 7.89543 10 9Z" stroke="#3D1B50" stroke-width="1.5"/>
<path d="M9.59313 14L7.82751 16.7094C7.59113 17.0403 7.82769 17.5 8.23438 17.5H11.5543C11.961 17.5 12.1976 17.0403 11.9612 16.7094L10.4069 14C10.2075 13.7208 9.79254 13.7208 9.59313 14Z" stroke="#3D1B50" stroke-width="1.5"/>
<path d="M14.5681 12.2404L11.9386 16.7481C11.7442 17.0814 11.9846 17.5 12.3705 17.5H17.6295C18.0154 17.5 18.2558 17.0814 18.0614 16.7481L15.4319 12.2404C15.239 11.9096 14.7611 11.9096 14.5681 12.2404Z" stroke="#3D1B50" stroke-width="1.5"/>
</svg>
