<svg width="24" height="24" viewBox="0 0 24 24" fill="none" xmlns="http://www.w3.org/2000/svg">
<path d="M2 11.5C2 14.5376 4.35198 17 7.5 17C9.83736 17 12.0743 15.5 12.5 13.5H17V15.0833C17 15.6356 17.4477 16.0833 18 16.0833L19 16.0833C19.5523 16.0833 20 15.6356 20 15.0833V13.5L21 13.5C21.5523 13.5 22 13.0523 22 12.5V10.5C22 9.94772 21.5523 9.5 21 9.5H12.5C12.0743 7.5 9.83736 6 7.5 6C4.35198 6 2 8.46243 2 11.5Z" stroke="#3D1B50" stroke-width="1.5"/>
<path d="M9.5 11.5C9.5 12.6046 8.60457 13.5 7.5 13.5C6.39543 13.5 5.5 12.6046 5.5 11.5C5.5 10.3954 6.39543 9.5 7.5 9.5C8.60457 9.5 9.5 10.3954 9.5 11.5Z" stroke="#3D1B50" stroke-width="1.5"/>
</svg>
