<svg width="24" height="24" viewBox="0 0 24 24" fill="none" xmlns="http://www.w3.org/2000/svg">
<path d="M16.011 16.7532H16.8548C17.6776 16.7532 18.4164 17.257 18.7168 18.023L19.7413 20.6354C19.9985 21.2913 19.5149 22.0005 18.8103 22.0005H4.46631C3.76174 22.0005 3.27811 21.2913 3.53534 20.6354L4.55983 18.023C4.86022 17.257 5.59902 16.7532 6.42177 16.7532H7.26556" stroke="#3D1B50" stroke-width="1.5" stroke-linecap="round" stroke-linejoin="round"/>
<path fill-rule="evenodd" clip-rule="evenodd" d="M11.6387 8.82214C10.6496 8.82214 9.84766 8.02018 9.84766 7.03194C9.84766 6.04195 10.6496 5.23999 11.6387 5.23999C12.6287 5.23999 13.4298 6.04195 13.4298 7.03194C13.4298 8.02018 12.6287 8.82214 11.6387 8.82214Z" stroke="#3D1B50" stroke-width="1.5" stroke-linecap="round" stroke-linejoin="round"/>
<path fill-rule="evenodd" clip-rule="evenodd" d="M17.2037 7.56499C17.2037 10.6382 11.639 19.095 11.639 19.095C11.639 19.095 6.07422 10.6382 6.07422 7.56499C6.07422 4.49183 8.5658 2.00024 11.639 2.00024C14.7121 2.00024 17.2037 4.49183 17.2037 7.56499Z" stroke="#3D1B50" stroke-width="1.5" stroke-linecap="round" stroke-linejoin="round"/>
</svg>
