<svg width="24" height="24" viewBox="0 0 24 24" fill="none" xmlns="http://www.w3.org/2000/svg">
<path d="M12.1066 12.0503L9.27817 9.22183M9.27817 9.22183L7.33363 11.1664M9.27817 9.22183L11.2227 7.27728M13.1673 5.33274L14.935 7.10051M13.1673 5.33274L11.2227 7.27728M13.1673 5.33274L15.1118 3.38819M5.38909 13.1109L7.15685 14.8787M5.38909 13.1109L7.33363 11.1664M5.38909 13.1109L3.44454 15.0555M7.33363 11.1664L9.1014 12.9341M11.2227 7.27728L12.9905 9.04505M15.1118 3.38819L15.6421 2.85786C16.4232 2.07682 17.6895 2.07682 18.4706 2.85786L21.299 5.68629C22.08 6.46734 22.08 7.73367 21.299 8.51472L8.57107 21.2426C7.79002 22.0237 6.52369 22.0237 5.74264 21.2426L2.91421 18.4142C2.13316 17.6332 2.13317 16.3668 2.91421 15.5858L3.44454 15.0555M15.1118 3.38819L16.8796 5.15596M3.44454 15.0555L5.21231 16.8232" stroke="#3D1B50" stroke-width="1.5" stroke-linecap="round" stroke-linejoin="round"/>
</svg>
