<svg width="24" height="24" viewBox="0 0 24 24" fill="none" xmlns="http://www.w3.org/2000/svg">
<path d="M12 5V3M12 5H11.6007C9.00022 5 6.82759 6.99298 6.65833 9.58791C6.57038 10.9362 6.5 12.2496 6.5 13C6.5 14.1912 5.61309 16.092 4.8958 17.4345C4.52566 18.1272 5.01881 19 5.80425 19H18.0568C18.8702 19 19.3704 18.0613 18.9741 17.3509C18.2842 16.114 17.5 14.4002 17.5 13C17.5 12.1052 17.4359 10.826 17.3537 9.55222C17.187 6.97158 15.0199 5 12.4339 5H12Z" stroke="#3D1B50" stroke-width="1.5" stroke-linecap="round"/>
<path d="M13.5 20.5C13.5 21.3284 12.8284 22 12 22C11.1716 22 10.5 21.3284 10.5 20.5" stroke="#3D1B50" stroke-width="1.5"/>
</svg>
