<svg width="24" height="24" viewBox="0 0 24 24" fill="none" xmlns="http://www.w3.org/2000/svg">
<path d="M9.8883 19.6298C8.32174 20.2787 6.67449 20.7017 4.9959 20.889C3.89814 21.0115 3 20.1046 3 19L3 17.6396C3 16.6862 3.67292 15.8654 4.60777 15.6784L7.0178 15.1964C7.636 15.0728 8.27631 15.2479 8.74559 15.6689L8.94777 15.8503C9.57844 16.416 10.4979 16.5244 11.2174 16.077C12.0939 15.532 13.2494 14.7506 14 14C14.7506 13.2494 15.532 12.0939 16.077 11.2174C16.5244 10.4979 16.416 9.57844 15.8503 8.94777L15.6689 8.74559C15.2479 8.27631 15.0728 7.636 15.1964 7.0178L15.6784 4.60777C15.8654 3.67292 16.6862 3 17.6396 3L19 3C20.1046 3 21.0115 3.89814 20.889 4.9959C20.7017 6.67449 20.2787 8.32174 19.6298 9.8883C19.3285 10.6157 18.9805 11.321 18.5885 12C17.8036 13.3594 16.8426 14.6132 15.7279 15.7279C14.6132 16.8426 13.3594 17.8036 12 18.5885C11.321 18.9805 10.6157 19.3285 9.8883 19.6298Z" stroke="#3D1B50" stroke-width="1.5" stroke-linecap="round" stroke-linejoin="round"/>
</svg>
