<svg width="24" height="24" viewBox="0 0 24 24" fill="none" xmlns="http://www.w3.org/2000/svg">
<path d="M19 12C19 13.6195 18.4384 15.1889 17.4111 16.4407C16.3837 17.6926 14.954 18.5495 13.3656 18.8655C11.7773 19.1814 10.1285 18.9369 8.70022 18.1734C7.27196 17.41 6.15259 16.175 5.53284 14.6788C4.91309 13.1826 4.83131 11.5178 5.30142 9.96801C5.77153 8.41826 6.76445 7.07946 8.111 6.17972C9.45756 5.27998 11.0744 4.87498 12.6861 5.03372C14.2978 5.19245 15.8046 5.90511 16.9497 7.05026M16.9497 7.05026L12.6861 8.5M16.9497 7.05026L16 2.5" stroke="#3D1B50" stroke-width="1.5" stroke-linecap="round" stroke-linejoin="round"/>
</svg>
