<svg width="24" height="24" viewBox="0 0 24 24" fill="none" xmlns="http://www.w3.org/2000/svg">
<g clip-path="url(#clip0_1_1545)">
<path d="M20.5714 12C20.5714 16.7339 16.7339 20.5714 12 20.5714M20.5714 12C20.5714 7.26613 16.7339 3.42857 12 3.42857M20.5714 12H18.5M20.5714 12H22.5M12 20.5714C7.26613 20.5714 3.42857 16.7339 3.42857 12M12 20.5714V18.5M12 20.5714V22.5M3.42857 12C3.42857 7.26613 7.26613 3.42857 12 3.42857M3.42857 12H5.5M3.42857 12H1.5M12 3.42857V1.5M12 3.42857V5.5" stroke="#3D1B50" stroke-width="1.5" stroke-linecap="round" stroke-linejoin="round"/>
<circle cx="12" cy="12" r="1.5" stroke="#3D1B50" stroke-width="1.5"/>
</g>
<defs>
<clipPath id="clip0_1_1545">
<rect width="24" height="24" fill="white"/>
</clipPath>
</defs>
</svg>
