<svg width="24" height="24" viewBox="0 0 24 24" fill="none" xmlns="http://www.w3.org/2000/svg">
<path d="M12 2L5.29775 4.51334C4.51715 4.80607 4 5.55071 4 6.3844C4 7.86908 4 10.249 4 12M12 2V4.5M12 2L13.75 2.65625M4 12C4 13.3031 4.27725 14.4677 4.72853 15.5M4 12C5.27264 12 6.83593 12 8.2419 12M12 22C12 22 20 19 20 12M12 22V19.5M12 22C12 22 11.3539 21.7577 10.4288 21.2501M20 12C20 10.7599 20 9.20452 20 7.875M20 12C18.7625 12 17.2502 12 15.875 12M12 12L19.2979 4.73673M12 12L6.17741 17.8309M12 12V8.15M12 12C12 12 13.7782 12 15.875 12M12 12V15.75M12 12C12 12 10.2874 12 8.2419 12M12 4.5L13.75 2.65625M12 4.5V8.15M13.75 2.65625L16.5 3.6875M6.17741 17.8309C6.81634 18.6061 7.53419 19.2664 8.2419 19.8174M6.17741 17.8309C5.61212 17.1452 5.10861 16.3695 4.72853 15.5M12 19.5L10.4288 21.2501M12 19.5V15.75M10.4288 21.2501C9.79208 20.9008 9.02317 20.4257 8.2419 19.8174M16.5 3.6875L12 8.15M16.5 3.6875L18.7022 4.51334C19.4829 4.80607 20 5.5522 20 6.38589C20 6.81882 20 7.32777 20 7.875M20 7.875L15.875 12M12 15.75L8.2419 19.8174M8.2419 12L4.72853 15.5" stroke="#3D1B50" stroke-width="1.5" stroke-linecap="round" stroke-linejoin="round"/>
</svg>
