<svg width="24" height="24" viewBox="0 0 24 24" fill="none" xmlns="http://www.w3.org/2000/svg">
<g id="icon/settings">
<g id="Group 14">
<g id="Group 11">
<g id="Group 9">
<g id="Stroke 524">
<path fill-rule="evenodd" clip-rule="evenodd" d="M17.1453 16.5593C17.4199 16.2495 17.8388 16.0931 18.2389 16.199L19.2895 16.4771C19.7255 16.5926 20.1904 16.4042 20.3851 15.9973C20.5354 15.6831 20.6672 15.3618 20.7821 15.0272C20.9282 14.6014 20.7292 14.1422 20.3384 13.9188L19.3932 13.3784C19.0342 13.1731 18.8457 12.7683 18.867 12.3553C18.8803 12.0983 18.879 11.8422 18.8636 11.5878C18.8386 11.1746 19.0241 10.7677 19.382 10.5595L20.3229 10.012C20.7124 9.78545 20.9075 9.32427 20.7569 8.89957C20.6399 8.56981 20.5046 8.24676 20.3514 7.93205C20.1543 7.52701 19.6888 7.34304 19.2543 7.46194L18.2052 7.74906C17.8054 7.85848 17.3847 7.70496 17.1077 7.39659C16.9379 7.20754 16.7569 7.02726 16.5651 6.85693C16.2552 6.58164 16.098 6.1622 16.2041 5.76145L16.4824 4.71018C16.5976 4.27501 16.4103 3.81094 16.0045 3.61621C15.6866 3.46371 15.3646 3.3319 15.0324 3.21801C14.6064 3.0719 14.147 3.27115 13.9236 3.66229L13.3853 4.60509C13.1798 4.96493 12.7738 5.1536 12.36 5.13193C12.1024 5.11845 11.8457 5.11973 11.5907 5.13534C11.1768 5.16068 10.7689 4.9753 10.5604 4.61687L10.0126 3.67533C9.7865 3.28664 9.32673 3.09158 8.90291 3.24187C8.5784 3.35695 8.25388 3.49227 7.93456 3.6475C7.5298 3.84427 7.34592 4.30921 7.46445 4.74337L7.75091 5.79257C7.86015 6.1927 7.70608 6.61358 7.39785 6.89113C7.20748 7.06255 7.02607 7.24544 6.85445 7.43928C6.58016 7.7491 6.16138 7.90529 5.76138 7.79934L4.71074 7.52102C4.27531 7.40568 3.81144 7.59348 3.6177 8.00014C3.46964 8.31092 3.33625 8.63481 3.22029 8.96937C3.07271 9.39514 3.27132 9.85479 3.66259 10.0783L4.6069 10.6178C4.96663 10.8234 5.15522 11.2293 5.13386 11.643C5.12053 11.9012 5.12204 12.1585 5.13773 12.414C5.16309 12.8271 4.9776 13.2339 4.61987 13.442L3.67939 13.9891C3.28954 14.2159 3.09474 14.6776 3.24618 15.1024C3.36185 15.4269 3.49696 15.7504 3.65096 16.0677C3.84762 16.4729 4.31273 16.6572 4.7472 16.5387L5.79965 16.2515C6.19864 16.1427 6.61835 16.2955 6.89506 16.6029C7.0665 16.7933 7.24923 16.9749 7.44317 17.1467C7.75323 17.4215 7.90994 17.8407 7.80386 18.2411L7.52619 19.2893C7.41066 19.7255 7.59905 20.1905 8.00605 20.3852C8.32192 20.5364 8.64305 20.668 8.97561 20.7821C9.40158 20.9282 9.86084 20.7289 10.084 20.3377L10.6235 19.3922C10.8286 19.0329 11.2335 18.8441 11.6467 18.8654C11.9037 18.8786 12.1597 18.8772 12.4138 18.8616C12.8279 18.8363 13.2359 19.0216 13.4445 19.3802L13.9911 20.3198C14.2177 20.7093 14.6789 20.9043 15.1036 20.7537C15.4334 20.6367 15.7565 20.5014 16.0712 20.3482C16.4762 20.1511 16.6602 19.6857 16.5414 19.2513L16.254 18.2004C16.1446 17.8006 16.2982 17.38 16.6062 17.1026C16.795 16.9326 16.975 16.7513 17.1453 16.5593Z" stroke="#3D1B50" stroke-width="1.5" stroke-linecap="round" stroke-linejoin="round"/>
<path fill-rule="evenodd" clip-rule="evenodd" d="M14.5786 13.0538C13.9958 14.4782 12.3681 15.1611 10.9436 14.5767C9.51919 13.9939 8.83793 12.3662 9.42073 10.9418C10.0035 9.51732 11.6312 8.83606 13.0557 9.41886C14.4801 10.0017 15.1629 11.6294 14.5786 13.0538Z" stroke="#3D1B50" stroke-width="1.5" stroke-linecap="round" stroke-linejoin="round"/>
</g>
</g>
</g>
</g>
</g>
</svg>
