<svg width="24" height="24" viewBox="0 0 24 24" fill="none" xmlns="http://www.w3.org/2000/svg">
<path d="M14.208 7.5C14.5938 8.38295 15.4748 9 16.5 9C17.8807 9 19 7.88071 19 6.5C19 5.11929 17.8807 4 16.5 4C15.1193 4 14 5.11929 14 6.5C14 6.85555 14.0742 7.19377 14.208 7.5ZM14.208 7.5L9 10.7514" stroke="#3D1B50" stroke-width="1.5" stroke-linecap="round"/>
<path d="M14.208 16.4999C14.0742 16.8062 14 17.1444 14 17.4999C14 18.8806 15.1193 19.9999 16.5 19.9999C17.8807 19.9999 19 18.8806 19 17.4999C19 16.1192 17.8807 14.9999 16.5 14.9999C15.4748 14.9999 14.5938 15.617 14.208 16.4999ZM14.208 16.4999L9 13.2485" stroke="#3D1B50" stroke-width="1.5" stroke-linecap="round"/>
<circle cx="6.5" cy="12" r="2.5" stroke="#3D1B50" stroke-width="1.5"/>
</svg>
