<svg width="24" height="24" viewBox="0 0 24 24" fill="none" xmlns="http://www.w3.org/2000/svg">
<path d="M11.7758 3.95425C11.8675 3.76843 12.1325 3.76844 12.2242 3.95425L14.5869 8.74156C14.6233 8.81535 14.6937 8.86649 14.7751 8.87832L20.0582 9.64601C20.2633 9.6758 20.3452 9.92779 20.1968 10.0724L16.3739 13.7988C16.315 13.8563 16.2881 13.939 16.302 14.0201L17.2044 19.2819C17.2395 19.4861 17.0251 19.6419 16.8417 19.5454L12.1163 17.0612C12.0435 17.0229 11.9565 17.0229 11.8837 17.0612L7.1583 19.5454C6.97489 19.6419 6.76054 19.4861 6.79556 19.2819L7.69803 14.0201C7.71194 13.939 7.68505 13.8563 7.62613 13.7988L3.80323 10.0724C3.65485 9.92779 3.73673 9.6758 3.94178 9.64601L9.2249 8.87832C9.30633 8.86649 9.37672 8.81535 9.41313 8.74156L11.7758 3.95425Z" stroke="#3D1B50" stroke-width="1.5"/>
</svg>
