<svg width="24" height="24" viewBox="0 0 24 24" fill="none" xmlns="http://www.w3.org/2000/svg">
<path d="M12 5L3.75449 2.83013C3.12041 2.66327 2.5 3.14153 2.5 3.7972V17.7291C2.5 18.1834 2.80619 18.5806 3.24551 18.6962L12 21M12 5V21M12 5L20.2455 2.83013C20.8796 2.66327 21.5 3.14153 21.5 3.7972V17.7291C21.5 18.1834 21.1938 18.5806 20.7545 18.6962L12 21M14.5 8.625L19 7.5M14.5 12.5625L19 11.4375M14.5 16.5L19 15.375M9.5 8.625L5 7.5M9.5 12.5625L5 11.4375M9.5 16.5L5 15.375" stroke="#3D1B50" stroke-width="1.5" stroke-linecap="round" stroke-linejoin="round"/>
</svg>
