<svg width="24" height="24" viewBox="0 0 24 24" fill="none" xmlns="http://www.w3.org/2000/svg">
<path d="M3 5C3 6.10457 3.89543 7 5 7V7C6.10457 7 7 6.10457 7 5V5C7 3.89543 6.10457 3 5 3V3C3.89543 3 3 3.89543 3 5V5ZM10 19C10 20.1046 10.8954 21 12 21V21C13.1046 21 14 20.1046 14 19V19C14 17.8954 13.1046 17 12 17V17C10.8954 17 10 17.8954 10 19V19ZM3 19C3 20.1046 3.89543 21 5 21V21C6.10457 21 7 20.1046 7 19V19C7 17.8954 6.10457 17 5 17V17C3.89543 17 3 17.8954 3 19V19ZM3 12C3 13.1046 3.89543 14 5 14V14C6.10457 14 7 13.1046 7 12V12C7 10.8954 6.10457 10 5 10V10C3.89543 10 3 10.8954 3 12V12ZM10 12C10 13.1046 10.8954 14 12 14V14C13.1046 14 14 13.1046 14 12V12C14 10.8954 13.1046 10 12 10V10C10.8954 10 10 10.8954 10 12V12ZM19 3C17.8954 3 17 3.89543 17 5V5C17 6.10457 17.8954 7 19 7V7C20.1046 7 21 6.10457 21 5V5C21 3.89543 20.1046 3 19 3V3ZM10 5C10 6.10457 10.8954 7 12 7V7C13.1046 7 14 6.10457 14 5V5C14 3.89543 13.1046 3 12 3V3C10.8954 3 10 3.89543 10 5V5ZM17 12C17 13.1046 17.8954 14 19 14V14C20.1046 14 21 13.1046 21 12V12C21 10.8954 20.1046 10 19 10V10C17.8954 10 17 10.8954 17 12V12ZM17 19C17 20.1046 17.8954 21 19 21V21C20.1046 21 21 20.1046 21 19V19C21 17.8954 20.1046 17 19 17V17C17.8954 17 17 17.8954 17 19V19Z" stroke="#3D1B50" stroke-width="1.5"/>
</svg>
